<?xml version="1.0" standalone="no"?>
<!DOCTYPE svg PUBLIC "-//W3C//DTD SVG 20010904//EN"
 "http://www.w3.org/TR/2001/REC-SVG-20010904/DTD/svg10.dtd">
<svg version="1.0" xmlns="http://www.w3.org/2000/svg"
 width="1280.000000pt" height="966.000000pt" viewBox="0 0 1280.000000 966.000000"
 preserveAspectRatio="xMidYMid meet">

<g transform="translate(0.000000,966.000000) scale(0.100000,-0.100000)"
fill="#546c5d" stroke="none">
<path d="M1376 9189 c-14 -17 -26 -40 -26 -51 0 -11 25 -57 55 -103 90 -135
105 -182 105 -327 0 -139 -14 -211 -87 -447 -46 -148 -60 -182 -171 -411 -53
-111 -162 -315 -202 -380 -5 -8 -18 -33 -29 -55 -11 -22 -25 -47 -30 -55 -27
-40 -181 -321 -181 -329 0 -6 -11 -27 -25 -47 -14 -20 -25 -45 -25 -54 0 -10
-7 -23 -15 -30 -8 -7 -15 -17 -15 -23 0 -5 -9 -28 -19 -51 -11 -23 -34 -75
-51 -116 -18 -41 -38 -88 -46 -105 -23 -51 -91 -275 -113 -375 -35 -159 -45
-351 -27 -526 9 -82 23 -184 31 -227 10 -50 15 -137 15 -240 0 -167 -16 -257
-64 -369 -9 -21 -16 -49 -16 -62 0 -40 30 -21 101 64 35 41 87 103 116 138 29
34 53 66 53 71 0 5 19 30 42 56 54 61 189 247 307 424 24 36 47 68 52 69 5 2
9 7 9 12 0 14 62 110 71 110 5 0 9 5 9 12 0 6 20 41 43 77 67 101 120 188 167
276 24 44 50 93 60 110 256 460 453 1031 489 1416 6 59 16 119 22 133 l12 26
28 -26 c16 -15 36 -50 45 -78 8 -28 22 -65 30 -83 8 -17 14 -38 14 -47 0 -9 9
-34 20 -56 11 -22 20 -46 20 -54 0 -20 74 -209 111 -283 62 -124 135 -154 229
-93 79 50 214 199 358 393 29 40 63 83 75 97 12 14 38 47 57 75 146 207 420
556 457 580 25 17 27 17 40 -1 18 -24 16 -95 -6 -302 -11 -98 -27 -244 -36
-327 -8 -82 -20 -195 -26 -250 -39 -375 -49 -679 -24 -763 22 -71 51 -92 131
-92 60 0 64 2 89 34 38 50 45 170 17 286 -31 125 -35 173 -22 300 6 63 15 169
20 235 12 150 27 306 40 410 22 182 60 467 75 565 9 58 17 144 18 192 2 97 5
93 -86 146 -73 42 -94 34 -197 -75 -51 -54 -173 -206 -271 -338 -99 -132 -194
-257 -212 -279 -18 -21 -38 -49 -45 -62 -12 -22 -48 -72 -241 -324 -39 -52
-101 -125 -137 -162 -55 -57 -71 -68 -98 -68 -20 0 -40 8 -51 20 -18 20 -54
98 -80 175 -7 22 -27 78 -45 125 -17 47 -35 99 -39 115 -13 44 -42 124 -63
172 -10 24 -18 54 -18 67 0 14 -4 28 -10 31 -5 3 -19 36 -30 72 -11 37 -24 71
-29 77 -5 6 -15 34 -24 61 -29 93 -92 250 -119 295 -14 25 -61 78 -105 119
-239 227 -221 206 -249 300 -32 105 -63 160 -117 206 -50 43 -77 44 -111 4z
m268 -677 c23 -27 37 -225 25 -367 -5 -61 -15 -194 -23 -296 -8 -102 -20 -205
-26 -230 -6 -24 -17 -84 -25 -134 -7 -49 -21 -117 -30 -150 -35 -126 -57 -201
-65 -220 -21 -49 -60 -152 -60 -159 0 -12 -124 -273 -151 -316 -5 -8 -14 -26
-20 -40 -5 -14 -19 -41 -29 -60 -23 -43 -25 -57 -5 -40 8 7 15 20 15 30 0 9 9
25 20 35 11 10 20 24 20 31 0 7 9 21 19 31 11 10 22 30 26 46 4 15 13 31 19
35 16 10 156 297 156 320 0 6 8 31 19 54 29 67 71 201 71 226 0 13 6 35 14 51
8 15 19 56 25 92 5 35 17 93 25 129 8 36 16 90 16 120 0 30 7 96 16 145 10 55
18 190 22 349 4 158 11 261 17 262 13 4 64 -78 85 -136 10 -25 22 -55 28 -67
7 -12 12 -44 12 -71 0 -27 7 -87 16 -132 33 -179 -7 -586 -87 -862 -53 -186
-63 -218 -86 -283 -39 -107 -60 -161 -106 -265 -48 -110 -250 -511 -276 -549
-10 -14 -28 -46 -41 -70 -12 -24 -26 -49 -31 -55 -5 -6 -38 -58 -72 -116 -34
-58 -89 -145 -122 -193 -33 -49 -67 -99 -75 -112 -48 -77 -154 -225 -162 -225
-4 0 -8 -5 -8 -10 0 -10 -47 -75 -105 -146 -14 -18 -25 -37 -25 -42 0 -6 -16
-19 -36 -28 -55 -26 -59 -16 -62 168 -1 89 -7 193 -12 232 -36 257 -43 381
-31 511 20 217 95 489 204 740 42 98 215 432 287 555 40 69 81 142 91 162 10
20 23 40 29 43 5 3 10 14 10 24 0 10 9 30 21 45 12 15 71 127 133 249 122 245
156 318 156 339 0 8 4 18 9 24 5 5 16 34 26 64 10 30 21 60 26 65 4 6 13 31
18 56 12 52 59 159 70 159 4 0 15 -8 25 -18z"/>
<path d="M9131 8873 c-57 -41 -103 -173 -116 -338 -4 -44 -10 -105 -15 -135
-5 -30 -19 -134 -30 -230 -11 -96 -25 -193 -30 -215 -5 -22 -10 -62 -10 -90 0
-27 -9 -93 -20 -145 -11 -52 -20 -111 -20 -130 0 -19 -11 -98 -25 -175 -14
-77 -35 -194 -46 -260 -34 -195 -58 -332 -86 -472 -28 -146 -26 -182 13 -227
36 -41 110 -48 157 -16 31 21 84 87 130 159 24 38 29 46 72 111 16 25 39 65
52 90 13 25 41 72 63 105 22 33 49 78 60 100 11 22 33 58 49 80 16 22 55 81
87 130 204 317 334 431 426 379 68 -39 85 -105 123 -494 29 -281 67 -403 156
-492 56 -56 82 -68 149 -68 41 0 55 5 85 31 50 44 45 86 -20 174 -38 51 -135
248 -135 275 0 14 -9 57 -19 95 -10 39 -22 117 -26 175 -4 58 -11 123 -15 145
-5 22 -14 81 -20 130 -6 50 -22 125 -37 167 -21 64 -34 86 -74 123 -44 42 -52
45 -101 45 -189 0 -480 -305 -758 -795 -100 -177 -135 -212 -160 -166 -15 29
-12 129 5 191 9 30 20 84 24 120 5 36 19 101 30 144 12 44 21 92 21 108 0 16
6 44 14 63 8 18 18 60 22 91 4 32 13 74 21 93 8 19 18 55 23 80 4 25 22 100
40 166 18 66 41 154 51 195 9 41 22 94 28 117 20 78 43 267 44 363 1 80 -2
102 -20 136 -37 70 -114 102 -162 67z"/>
<path d="M7905 8569 c-37 -19 -62 -74 -95 -204 -35 -145 -36 -147 -81 -295
-22 -74 -40 -114 -61 -135 l-28 -30 -182 -5 -182 -5 -23 -35 c-18 -25 -22 -42
-17 -64 11 -48 26 -65 83 -93 48 -22 62 -25 115 -18 87 10 123 7 151 -11 29
-19 32 -49 10 -120 -8 -27 -15 -66 -15 -87 0 -21 -6 -52 -13 -70 -8 -18 -19
-63 -26 -102 -7 -38 -19 -92 -26 -120 -21 -71 -37 -202 -42 -335 -8 -197 37
-318 141 -387 58 -38 118 -48 250 -41 84 5 99 9 184 51 145 72 295 204 343
303 23 48 20 90 -6 101 -30 11 -82 -8 -121 -43 -105 -98 -277 -197 -361 -210
-54 -8 -118 14 -156 54 -32 33 -57 125 -57 207 1 102 26 252 86 505 70 294 82
325 131 335 15 3 57 12 93 21 36 9 128 20 205 25 251 15 352 34 384 73 7 8 15
33 18 54 5 34 1 43 -23 66 -28 26 -31 26 -171 26 -101 0 -170 -6 -243 -20
-116 -23 -149 -24 -184 -9 -37 17 -39 48 -10 151 14 51 30 111 36 133 5 22 18
68 29 101 11 34 21 89 22 123 1 54 -2 64 -25 87 -29 29 -98 41 -133 23z"/>
<path d="M6505 8071 c-45 -8 -123 -40 -195 -82 -81 -46 -234 -195 -306 -297
-24 -35 -44 -65 -44 -68 0 -3 -10 -20 -22 -36 -60 -85 -119 -225 -166 -398
-24 -85 -27 -113 -27 -265 0 -164 1 -172 29 -239 51 -126 107 -191 206 -242
53 -28 60 -29 226 -32 164 -3 175 -2 249 23 91 32 167 69 185 90 7 8 17 15 22
15 10 0 103 67 141 102 76 70 95 89 128 124 70 76 106 214 59 229 -25 8 -44
-5 -139 -98 -191 -185 -368 -272 -578 -284 -86 -5 -95 -4 -145 22 -107 55
-153 127 -152 236 1 103 0 102 224 234 148 88 253 161 365 254 101 84 107 90
179 181 64 82 90 136 110 227 26 118 -5 214 -91 279 -31 23 -46 27 -122 30
-47 1 -108 -1 -136 -5z m105 -210 c40 -40 47 -75 26 -136 -34 -95 -135 -217
-251 -300 -22 -16 -44 -34 -50 -40 -5 -7 -37 -29 -70 -50 -33 -21 -62 -42 -65
-45 -3 -4 -38 -26 -79 -49 -66 -39 -75 -42 -89 -28 -29 30 -18 84 44 212 13
28 24 54 24 58 0 18 142 215 187 259 54 54 107 98 118 98 4 0 19 8 33 19 32
22 53 28 105 30 30 1 45 -5 67 -28z"/>
<path d="M4905 8043 c-156 -18 -234 -56 -394 -191 -82 -69 -280 -295 -299
-342 -3 -8 -22 -40 -43 -70 -40 -60 -117 -205 -139 -260 -7 -19 -18 -48 -25
-65 -38 -94 -58 -240 -52 -366 4 -80 9 -105 32 -144 44 -79 57 -93 123 -126
58 -29 69 -31 130 -26 66 6 164 36 212 66 14 9 41 24 61 34 75 38 255 194 328
284 39 49 85 97 101 106 28 17 30 17 43 -5 13 -20 31 -108 57 -278 8 -53 45
-134 85 -185 53 -70 142 -85 215 -36 44 30 69 63 70 93 0 10 -30 48 -67 86
-63 62 -70 74 -96 157 -28 89 -28 95 -24 280 3 138 10 221 25 305 12 63 22
132 22 153 0 23 8 49 19 63 15 19 19 42 19 126 1 121 -9 144 -65 154 -52 10
-77 28 -120 88 -48 66 -53 70 -90 90 -30 15 -60 17 -128 9z m61 -222 c17 -10
41 -35 53 -55 21 -34 23 -46 19 -179 -2 -115 -6 -147 -20 -167 -10 -13 -18
-32 -18 -40 0 -14 -38 -94 -81 -170 -32 -57 -198 -261 -274 -335 -83 -81 -194
-163 -261 -191 -84 -35 -154 -17 -194 49 -17 26 -20 50 -20 137 0 91 4 112 25
158 14 30 25 62 25 71 0 15 28 74 71 151 143 257 344 492 479 557 78 38 148
43 196 14z"/>
<path d="M5505 5980 c-207 -47 -405 -134 -552 -242 -134 -97 -165 -123 -252
-210 -150 -149 -306 -374 -408 -588 -69 -147 -95 -212 -154 -395 -22 -66 -43
-129 -48 -140 -5 -11 -12 -45 -16 -76 -3 -30 -12 -67 -20 -82 -8 -15 -16 -60
-19 -99 -4 -48 -3 -64 3 -48 5 14 9 42 10 63 1 22 9 45 20 56 13 13 20 38 23
81 3 43 10 67 21 75 9 7 17 23 17 37 0 31 19 88 30 88 4 0 10 22 14 49 4 29
14 55 26 66 11 10 20 30 20 45 0 15 7 33 15 40 8 7 15 17 15 24 0 6 11 33 24
61 13 27 29 61 35 75 7 14 23 43 36 65 14 22 30 51 37 65 21 41 99 160 163
245 59 79 306 335 323 335 5 0 25 12 44 28 46 35 64 47 113 77 61 37 222 115
237 115 8 0 23 6 34 14 25 18 124 47 181 53 39 5 44 3 53 -22 11 -29 5 -68
-16 -102 -18 -29 -30 -113 -16 -113 5 0 13 16 16 35 4 19 12 40 19 47 7 8 23
36 37 63 14 27 42 71 63 97 48 61 60 93 47 119 -13 24 -64 24 -175 -1z"/>
<path d="M5358 5662 c-14 -15 -43 -54 -65 -87 -49 -73 -206 -225 -288 -280
-33 -22 -65 -45 -72 -52 -7 -6 -29 -21 -50 -34 -61 -37 -186 -135 -233 -181
-38 -38 -118 -132 -153 -179 -51 -68 -187 -324 -248 -464 -24 -57 -82 -205
-94 -240 -7 -22 -23 -59 -35 -83 -25 -48 -29 -85 -10 -107 11 -14 16 -10 35
24 13 22 29 57 35 78 7 21 19 47 26 58 8 11 14 26 14 34 0 8 8 33 19 55 10 23
24 56 31 74 7 17 16 32 20 32 4 0 10 14 14 31 3 17 15 42 26 56 11 14 20 31
20 38 0 19 91 193 142 271 96 149 266 321 392 398 17 10 83 58 146 106 121 93
212 183 270 268 19 28 38 51 43 52 4 0 7 7 7 15 0 9 11 26 24 38 30 28 45 92
23 100 -8 3 -25 -6 -39 -21z"/>
<path d="M5338 5145 c-4 -11 -10 -38 -14 -60 -3 -22 -12 -47 -19 -55 -7 -8
-16 -31 -20 -50 -4 -19 -13 -46 -20 -60 -8 -14 -25 -52 -40 -85 -41 -95 -132
-259 -158 -287 -6 -7 -28 -34 -47 -58 -32 -43 -75 -91 -130 -149 -30 -32 -238
-201 -246 -201 -3 0 -20 -11 -38 -25 -17 -14 -36 -29 -42 -34 -5 -4 -20 -14
-33 -20 -12 -7 -30 -19 -39 -27 -9 -8 -46 -38 -82 -67 -126 -101 -266 -263
-335 -387 -45 -82 -82 -110 -101 -78 -5 7 -11 44 -15 83 l-6 70 -2 -75 c-1
-41 -8 -97 -16 -124 -8 -27 -15 -83 -15 -125 0 -96 -26 -324 -39 -349 -5 -10
-13 -43 -17 -73 -7 -53 -18 -79 -35 -79 -12 0 -79 60 -79 72 0 11 -52 89 -75
111 -8 8 -31 41 -50 74 -20 32 -59 85 -86 118 -28 33 -62 78 -76 100 -15 22
-29 42 -33 45 -13 9 -260 374 -260 384 0 3 -7 14 -16 23 -21 24 -114 166 -114
174 0 4 -20 38 -45 76 -25 37 -45 73 -45 80 0 6 -4 13 -8 15 -13 5 -113 189
-181 331 -74 156 -119 289 -165 490 -14 61 -32 84 -84 111 -85 44 -204 -13
-231 -111 -6 -21 -11 -90 -12 -153 0 -63 -4 -137 -9 -165 -5 -27 -16 -97 -25
-155 -8 -58 -26 -170 -41 -250 -14 -80 -31 -179 -38 -220 -7 -41 -20 -104 -29
-140 -9 -36 -25 -119 -37 -185 -30 -169 -41 -214 -51 -221 -5 -3 -9 -26 -9
-52 -1 -26 -9 -72 -20 -102 -11 -30 -19 -69 -20 -86 0 -17 -11 -63 -25 -102
-14 -39 -25 -84 -25 -100 0 -16 -8 -53 -17 -83 -13 -40 -18 -89 -18 -184 0
-128 0 -131 30 -175 29 -43 33 -45 86 -48 52 -3 56 -1 99 40 65 63 72 88 81
293 5 109 16 221 28 285 12 58 21 121 21 140 0 19 7 64 15 100 8 36 21 116 30
179 8 63 22 147 30 187 8 40 15 85 15 100 0 15 9 62 19 103 11 42 24 103 30
136 38 206 55 266 81 290 35 32 59 8 148 -148 45 -79 82 -150 82 -156 0 -6 4
-11 9 -11 5 0 12 -8 15 -18 4 -10 25 -48 49 -85 23 -36 65 -103 92 -147 28
-45 56 -87 63 -95 6 -7 12 -18 12 -24 0 -5 10 -22 23 -38 12 -15 27 -35 32
-44 22 -36 91 -137 127 -185 21 -28 38 -56 38 -62 0 -7 3 -12 8 -12 4 0 32
-34 62 -76 30 -42 73 -100 95 -128 61 -77 136 -182 175 -245 20 -31 43 -65 52
-76 9 -11 46 -58 83 -105 36 -47 72 -93 80 -102 21 -26 110 -24 154 3 33 20
33 21 26 75 -3 30 -2 94 4 142 6 48 15 128 20 177 11 102 43 219 96 350 41
101 62 138 154 279 34 52 159 179 248 254 40 33 134 103 210 155 76 53 177
132 225 177 81 76 238 258 238 277 0 5 8 18 18 29 24 25 162 310 162 333 0 6
6 22 14 34 8 12 19 40 25 62 5 22 17 60 26 84 9 24 15 65 13 90 -2 32 -5 40
-10 26z"/>
<path d="M7106 4949 c-49 -38 -68 -96 -150 -439 -21 -88 -56 -200 -81 -255
-38 -86 -48 -89 -288 -95 l-209 -5 -25 -29 c-21 -25 -24 -36 -19 -73 7 -56 30
-90 77 -114 32 -16 59 -19 177 -19 186 0 184 2 161 -179 -6 -48 -17 -111 -24
-141 -8 -30 -17 -79 -20 -109 -3 -30 -12 -66 -20 -81 -8 -15 -19 -63 -24 -106
-6 -43 -15 -92 -20 -109 -28 -85 -41 -379 -20 -488 23 -130 89 -218 199 -271
62 -29 71 -31 185 -31 105 0 130 4 195 27 103 36 197 85 230 118 3 3 31 25 63
49 165 125 260 293 192 337 -30 19 -78 -2 -173 -77 -182 -144 -236 -178 -321
-203 -118 -35 -228 -10 -276 62 -59 89 -59 316 0 600 20 95 40 184 45 198 6
14 10 37 10 52 0 26 17 93 66 259 29 99 62 133 127 133 23 0 60 6 82 14 22 7
128 21 235 31 271 23 397 42 425 63 70 51 57 158 -20 178 -43 11 -432 -9 -621
-31 -58 -7 -63 -6 -77 16 -14 21 -14 32 -2 95 7 39 20 88 29 109 9 20 16 47
16 59 0 20 16 80 66 238 13 43 24 89 24 103 0 36 -23 78 -60 109 -41 34 -114
36 -154 5z"/>
<path d="M5425 4340 c-92 -15 -175 -42 -245 -81 -69 -38 -122 -72 -160 -105
-51 -43 -202 -195 -273 -275 -100 -112 -254 -353 -318 -499 -16 -36 -33 -72
-38 -80 -13 -24 -57 -176 -76 -264 -12 -57 -16 -111 -13 -200 3 -112 6 -126
36 -188 42 -86 107 -151 175 -173 109 -36 260 -11 397 66 8 5 33 18 55 30 34
19 72 47 222 164 48 37 110 102 188 196 92 110 101 118 137 119 39 0 46 -21
57 -166 6 -71 17 -149 26 -173 8 -24 15 -50 15 -59 0 -19 55 -127 86 -167 14
-18 43 -45 66 -60 36 -24 48 -27 96 -22 36 4 67 15 94 33 93 65 101 129 22
186 -62 44 -111 122 -134 213 -24 93 -40 217 -40 304 0 65 32 357 50 461 6 30
19 107 30 170 11 63 24 131 30 150 13 47 13 116 -2 143 -17 32 -36 43 -106 62
-60 17 -64 20 -96 75 -45 77 -64 98 -108 121 -46 23 -106 30 -173 19z m69
-260 c36 -13 65 -45 89 -99 19 -39 22 -64 22 -166 -1 -140 -11 -178 -96 -360
-119 -255 -482 -640 -693 -736 -89 -40 -180 -16 -222 59 -43 75 -30 280 26
421 26 67 111 245 120 251 4 3 13 16 20 30 52 99 232 345 307 417 90 89 192
158 273 186 26 9 128 7 154 -3z"/>
<path d="M11620 4276 c-58 -12 -146 -48 -160 -65 -3 -3 -23 -18 -45 -33 -103
-68 -286 -275 -409 -463 -33 -49 -67 -102 -77 -117 -10 -14 -37 -64 -59 -110
-22 -46 -44 -90 -49 -98 -4 -8 -23 -45 -41 -82 -38 -79 -54 -96 -78 -81 -59
36 -22 404 79 795 28 111 31 132 21 165 -19 65 -44 83 -111 83 -48 0 -65 -5
-97 -29 -84 -60 -88 -77 -144 -596 -20 -182 -27 -486 -20 -780 7 -318 19 -394
67 -450 24 -27 32 -30 83 -30 97 1 139 49 160 181 17 111 39 214 61 289 45
149 70 223 84 241 8 10 15 25 15 32 0 18 76 173 106 217 13 20 24 39 24 42 0
4 21 38 47 77 166 248 350 448 465 505 89 44 132 49 188 22 25 -12 61 -35 80
-51 96 -85 202 -72 229 27 13 45 -2 135 -30 179 -28 46 -110 110 -157 124 -58
18 -161 20 -232 6z"/>
<path d="M8415 4241 c-47 -27 -63 -66 -80 -196 -14 -103 -64 -349 -95 -465
-19 -71 -60 -294 -70 -373 -5 -45 -14 -116 -19 -158 -15 -113 15 -304 62 -393
42 -78 132 -167 194 -189 79 -28 189 -16 276 30 62 33 73 39 102 58 145 93
294 253 464 495 49 70 87 110 106 110 6 0 20 -6 31 -14 17 -13 20 -32 25 -198
5 -147 11 -196 28 -248 11 -36 21 -73 21 -83 0 -29 46 -119 79 -155 62 -67
133 -76 219 -25 73 42 75 86 7 161 -100 112 -135 254 -135 550 0 213 34 485
74 592 7 19 17 58 20 85 4 28 16 74 27 103 23 64 24 103 3 148 -32 66 -108 81
-173 33 -31 -23 -87 -138 -156 -324 -90 -241 -197 -449 -324 -634 -87 -126
-287 -326 -381 -380 -134 -77 -191 -84 -251 -34 -60 51 -73 93 -77 252 -7 249
29 425 178 851 27 80 54 179 60 220 8 67 7 80 -11 117 -11 23 -35 51 -53 63
-41 25 -109 25 -151 1z"/>
<path d="M1264 1505 c-18 -12 -22 -28 -28 -127 -4 -62 -14 -144 -22 -183 -9
-38 -19 -104 -23 -145 -5 -41 -13 -93 -19 -115 -6 -22 -16 -72 -22 -111 -11
-72 -38 -130 -65 -140 -21 -8 -60 20 -90 64 -14 20 -50 73 -81 117 -131 185
-218 345 -259 475 -28 91 -42 117 -65 120 -50 7 -70 -18 -70 -88 0 -90 -98
-616 -141 -756 -10 -33 -12 -97 -3 -120 4 -10 18 -16 35 -16 37 0 49 28 49
109 0 31 6 80 14 107 8 27 18 85 22 129 4 44 11 93 16 110 5 16 15 68 24 114
15 84 41 144 69 155 16 6 68 -55 80 -94 4 -14 13 -32 19 -40 7 -8 24 -35 39
-60 14 -25 33 -54 41 -65 9 -11 34 -47 56 -80 22 -33 60 -87 85 -120 25 -33
48 -66 51 -74 4 -7 18 -25 30 -39 13 -14 24 -33 24 -42 0 -22 68 -90 91 -90
35 0 61 33 64 85 9 132 26 257 40 299 9 25 20 81 25 124 5 42 14 91 20 107 7
17 16 59 20 95 5 36 16 79 25 97 18 36 31 148 21 187 -7 30 -39 35 -72 11z"/>
<path d="M9029 1513 c-18 -4 -38 -52 -64 -158 -22 -87 -48 -141 -78 -157 -12
-7 -56 -15 -97 -18 -70 -5 -75 -7 -78 -29 -5 -31 12 -41 76 -41 93 0 108 -36
73 -178 -24 -99 -44 -234 -45 -293 0 -68 29 -136 67 -155 61 -32 83 -34 158
-11 58 18 83 32 131 77 41 37 59 61 57 74 -4 16 -10 14 -58 -19 -122 -84 -180
-94 -238 -41 -35 32 -37 38 -41 104 -3 52 2 97 21 173 14 57 29 121 32 143 10
59 45 124 74 135 39 16 128 31 185 31 68 0 118 15 133 40 12 17 10 20 -13 26
-15 4 -71 4 -125 1 -154 -10 -190 15 -156 106 27 73 40 154 27 177 -11 20 -13
21 -41 13z"/>
<path d="M2652 1473 c-5 -10 -16 -45 -26 -78 -9 -33 -23 -83 -32 -112 -8 -28
-27 -65 -43 -82 -28 -29 -33 -31 -105 -31 l-76 0 0 -29 c0 -24 5 -29 31 -35
17 -3 47 -6 66 -6 51 0 63 -35 47 -142 -7 -46 -18 -96 -24 -113 -18 -44 -25
-224 -11 -267 6 -19 25 -48 42 -64 28 -26 36 -29 97 -28 55 1 77 6 122 32 66
37 133 103 128 126 -2 14 -11 11 -52 -16 -117 -80 -160 -92 -216 -63 -70 36
-73 109 -16 380 21 99 39 138 71 159 25 16 117 34 240 45 47 4 70 10 69 19 -1
6 -2 19 -2 27 -2 18 -79 20 -165 4 -113 -20 -137 20 -96 161 26 91 21 130 -16
130 -13 0 -28 -8 -33 -17z"/>
<path d="M12236 1274 c-106 -46 -208 -136 -236 -208 -15 -39 -12 -102 5 -136
22 -42 165 -150 199 -150 8 0 21 -6 28 -14 8 -7 28 -21 45 -30 43 -22 63 -53
63 -97 0 -31 -5 -41 -33 -58 -65 -40 -155 -61 -263 -61 -117 0 -139 -11 -110
-55 15 -23 23 -25 90 -25 51 0 101 8 167 28 147 45 194 74 230 144 30 59 25
88 -24 136 -23 23 -47 42 -52 42 -6 0 -35 17 -66 39 -31 21 -65 41 -75 45 -11
3 -44 28 -73 55 -53 49 -54 50 -48 98 4 41 12 54 49 87 59 53 139 87 218 93
91 8 113 30 70 73 -29 29 -109 26 -184 -6z"/>
<path d="M11497 1255 c-42 -14 -63 -31 -144 -115 -101 -104 -156 -226 -172
-385 -10 -101 -1 -160 34 -214 67 -107 248 -116 398 -21 53 34 157 137 157
156 0 21 -48 -1 -90 -41 -59 -56 -176 -105 -253 -105 -97 0 -183 87 -163 165
8 32 47 73 93 97 21 11 52 31 70 44 17 13 36 24 42 24 5 0 14 6 18 13 4 7 31
29 58 49 120 88 178 193 154 280 -5 21 -19 44 -32 53 -27 19 -118 19 -170 0z
m103 -72 c32 -28 26 -79 -19 -143 -35 -51 -64 -77 -171 -150 -58 -40 -103 -39
-108 3 -9 77 110 255 195 293 40 18 80 17 103 -3z"/>
<path d="M5032 1233 c-84 -43 -171 -136 -225 -238 -58 -112 -68 -149 -68 -263
-1 -123 6 -147 59 -200 43 -43 72 -52 172 -52 53 0 77 5 116 26 105 55 214
145 214 177 0 26 -13 21 -66 -23 -90 -75 -218 -121 -295 -106 -53 10 -98 53
-110 105 -17 77 -4 92 159 190 59 35 173 133 204 173 13 18 32 54 42 80 47
126 -68 200 -202 131z m108 -63 c47 -47 15 -122 -89 -214 -110 -96 -173 -120
-191 -71 -15 40 32 145 96 215 81 87 143 111 184 70z"/>
<path d="M1920 1233 c-101 -36 -222 -150 -295 -278 -16 -27 -34 -57 -40 -65
-7 -8 -25 -50 -40 -94 -49 -142 -22 -266 62 -282 64 -12 166 21 219 70 7 6 43
41 82 79 39 37 75 67 81 67 17 0 41 -43 41 -75 0 -17 9 -50 20 -73 11 -22 20
-45 20 -50 0 -12 57 -52 74 -52 9 0 23 11 31 24 15 22 14 26 -4 57 -55 92 -53
82 -48 248 3 104 10 177 22 219 9 34 14 73 11 85 -3 12 -32 45 -64 74 -68 60
-105 70 -172 46z m91 -84 c22 -11 42 -80 36 -125 -9 -69 -28 -132 -43 -145 -8
-6 -14 -17 -14 -23 0 -27 -129 -173 -204 -229 -77 -60 -130 -60 -166 -3 -25
42 -25 71 1 147 58 168 207 357 309 392 16 5 56 -1 81 -14z"/>
<path d="M10912 1221 c-52 -18 -66 -28 -125 -86 -32 -32 -157 -211 -157 -225
0 -14 -61 -100 -70 -100 -17 0 -40 58 -40 97 0 21 11 89 24 152 27 127 23 165
-16 159 -42 -6 -60 -48 -70 -164 -36 -417 -22 -614 43 -597 26 7 36 28 54 110
38 178 119 341 230 460 44 47 94 92 112 100 37 15 84 17 99 4 20 -18 71 -30
83 -18 29 29 1 91 -51 111 -48 20 -51 20 -116 -3z"/>
<path d="M4494 1221 c-75 -19 -185 -133 -281 -291 -32 -52 -45 -66 -68 -68
l-28 -4 7 94 c3 51 13 120 20 153 12 51 12 63 0 87 -15 29 -22 32 -49 22 -45
-18 -62 -122 -72 -430 -6 -209 5 -290 40 -303 44 -16 62 5 76 85 7 40 16 76
22 79 5 4 9 19 9 34 0 15 11 50 25 77 14 27 25 54 25 59 0 19 140 209 183 248
73 67 109 74 190 37 42 -20 80 0 71 37 -15 65 -92 103 -170 84z"/>
<path d="M7071 1217 c-15 -19 -52 -169 -96 -397 -29 -148 -16 -233 46 -303 35
-40 40 -42 90 -41 83 0 184 67 267 177 43 57 85 83 100 64 5 -6 12 -40 16 -74
8 -74 47 -167 76 -183 29 -15 60 -9 76 15 11 17 8 29 -19 85 -32 64 -32 67
-32 210 1 105 6 167 19 225 35 149 32 175 -20 175 -22 0 -64 -45 -64 -70 0 -7
-7 -24 -15 -38 -8 -15 -33 -72 -57 -127 -23 -54 -59 -125 -79 -156 -51 -78
-137 -160 -199 -189 l-52 -24 -34 37 c-32 35 -34 41 -34 110 0 76 44 277 73
334 25 48 31 130 13 158 -18 28 -57 33 -75 12z"/>
<path d="M8415 1223 c-26 -7 -91 -57 -133 -102 -44 -49 -99 -131 -147 -220
-49 -90 -77 -106 -101 -59 -20 38 -15 148 10 217 9 24 16 70 16 102 0 55 -1
59 -24 59 -42 0 -58 -41 -72 -190 -19 -191 -18 -490 0 -535 10 -22 22 -35 34
-35 25 0 62 68 62 115 0 44 19 115 32 115 4 0 8 11 8 25 0 33 93 210 134 255
18 19 44 51 59 71 61 84 159 120 224 82 63 -35 109 11 64 64 -32 38 -99 52
-166 36z"/>
<path d="M9582 1213 c-21 -8 -42 -59 -42 -101 0 -21 -7 -62 -16 -92 -23 -79
-54 -267 -54 -334 0 -86 27 -153 73 -184 32 -21 45 -24 87 -19 27 3 55 11 62
16 7 6 38 31 68 55 31 24 74 68 97 98 58 77 71 88 103 88 32 0 29 8 51 -135
11 -76 26 -106 63 -130 20 -14 28 -14 45 -3 12 7 21 16 21 19 0 4 -15 38 -32
75 -30 62 -33 80 -36 174 -2 73 2 128 13 180 37 166 42 195 32 223 -5 15 -13
27 -17 27 -24 0 -55 -47 -93 -140 -89 -215 -137 -292 -245 -394 -90 -85 -173
-88 -203 -9 -14 37 -10 170 6 243 9 36 29 107 47 159 48 147 38 211 -30 184z"/>
<path d="M3190 1196 c-21 -27 -91 -394 -91 -486 -1 -97 7 -123 48 -167 40 -43
74 -50 139 -29 53 17 139 91 224 193 66 79 100 59 100 -58 0 -88 37 -158 85
-162 46 -3 53 23 23 85 -53 109 -54 238 -2 476 16 73 17 84 4 93 -31 19 -55 5
-82 -51 -15 -30 -28 -60 -28 -65 0 -19 -110 -228 -145 -274 -72 -98 -163 -164
-217 -159 -67 6 -96 104 -69 233 15 72 52 199 61 210 13 16 24 118 16 149 -7
30 -45 36 -66 12z"/>
<path d="M6014 1169 c-15 -17 -19 -44 -25 -177 -4 -86 -11 -170 -17 -187 -13
-37 -25 -254 -16 -289 7 -28 39 -35 73 -16 23 12 95 107 115 151 9 19 20 41
26 49 5 8 14 26 20 40 5 14 14 32 19 40 5 8 31 53 57 100 27 47 67 104 90 128
36 36 48 42 83 42 77 0 97 -43 131 -288 23 -169 36 -199 92 -228 37 -19 78
-11 108 21 27 29 20 42 -26 51 -67 12 -83 52 -113 275 -24 177 -50 245 -106
272 -47 23 -62 22 -121 -8 -69 -34 -142 -132 -217 -289 -33 -70 -87 -156 -98
-156 -4 0 -15 7 -23 16 -22 21 -20 97 4 213 26 123 27 222 2 244 -24 22 -35
21 -58 -4z"/>
</g>
</svg>
