<?xml version="1.0" standalone="no"?>
<!DOCTYPE svg PUBLIC "-//W3C//DTD SVG 20010904//EN"
 "http://www.w3.org/TR/2001/REC-SVG-20010904/DTD/svg10.dtd">
<svg version="1.0" xmlns="http://www.w3.org/2000/svg"
 width="2048.000000pt" height="352.000000pt" viewBox="0 0 2048.000000 352.000000"
 preserveAspectRatio="xMidYMid meet">

<g transform="translate(0.000000,352.000000) scale(0.100000,-0.100000)"
fill="#927357" stroke="none">
<path d="M16290 3419 c-112 -14 -178 -36 -253 -86 -37 -25 -73 -50 -80 -57 -6
-7 -54 -43 -105 -80 -106 -77 -154 -97 -390 -157 -182 -46 -292 -97 -366 -167
-55 -53 -96 -134 -96 -190 0 -20 -3 -54 -7 -75 -10 -62 -29 -69 -215 -72 -155
-3 -177 -6 -453 -64 -348 -74 -385 -76 -479 -38 -55 23 -98 32 -211 42 -78 7
-153 18 -166 25 -38 20 -59 42 -59 61 0 10 -11 31 -24 46 -21 24 -31 28 -73
27 -64 -2 -197 -29 -296 -60 -95 -29 -139 -30 -237 -3 -41 11 -88 24 -105 28
-16 4 -77 24 -135 44 -98 34 -207 57 -340 72 -382 44 -717 176 -1045 413 -110
79 -146 96 -255 117 -97 19 -182 12 -305 -24 -38 -12 -113 -33 -165 -47 -52
-14 -131 -41 -175 -61 -44 -19 -98 -42 -119 -50 -22 -8 -56 -28 -75 -45 -20
-17 -63 -54 -95 -82 -33 -28 -83 -71 -110 -96 -106 -95 -196 -144 -284 -155
-115 -14 -446 39 -702 112 -244 69 -319 74 -399 26 -37 -24 -51 -21 -141 21
-88 41 -149 50 -226 33 -85 -20 -149 -60 -270 -168 l-99 -87 -42 39 c-23 21
-52 39 -63 39 -38 0 -86 -27 -136 -76 -181 -177 -409 -344 -471 -344 -10 0
-47 -9 -81 -20 -77 -24 -140 -25 -213 -4 -79 24 -308 142 -509 263 -96 58
-192 114 -212 125 -91 46 -318 257 -318 296 0 17 -68 77 -117 103 -28 15 -98
39 -155 54 -90 24 -122 27 -258 28 -169 0 -164 1 -395 -78 -71 -25 -156 -50
-187 -57 -53 -12 -61 -11 -110 9 -124 52 -483 100 -647 86 -112 -9 -240 -34
-288 -55 -46 -20 -241 -214 -279 -276 -29 -48 -78 -99 -139 -143 -58 -42 -64
-45 -209 -106 -133 -57 -235 -107 -342 -168 -45 -26 -84 -47 -87 -47 -4 0 -28
-15 -54 -34 -27 -18 -118 -73 -203 -121 -85 -48 -187 -112 -226 -141 -39 -30
-74 -54 -77 -54 -3 0 -29 -24 -58 -54 -29 -30 -57 -52 -61 -50 -4 3 -8 -2 -8
-10 0 -16 -145 -146 -162 -146 -5 0 -15 -6 -22 -12 -24 -24 -222 -157 -245
-166 -9 -3 -23 -11 -31 -17 -8 -7 -92 -42 -185 -79 -94 -36 -204 -82 -245
-102 -41 -20 -102 -45 -135 -56 -32 -11 -125 -47 -205 -79 -80 -33 -170 -69
-200 -81 -30 -11 -62 -26 -70 -33 -20 -15 -73 -37 -190 -79 l-95 -34 -3 -471
-2 -471 10240 0 10240 0 0 1085 0 1084 -70 48 c-113 78 -218 143 -230 143 -6
0 -43 18 -83 39 -40 22 -103 51 -142 66 -38 16 -122 59 -186 96 -64 38 -152
80 -195 95 -74 25 -85 26 -184 18 -58 -4 -150 -8 -205 -8 -99 -1 -103 0 -185
41 -116 57 -324 135 -445 167 -132 35 -175 49 -333 107 -129 48 -139 50 -295
60 -89 6 -234 9 -321 6 -227 -7 -454 7 -511 32 -57 25 -274 178 -375 264 -66
57 -129 78 -247 82 -60 2 -142 0 -183 -6z"/>
</g>
</svg>
